<svg id="Layer_4" data-name="Layer 4" xmlns="http://www.w3.org/2000/svg" viewBox="0 0 293.33 342"><defs><style>.cls-1,.cls-3{fill:#9cda57;}.cls-1,.cls-2,.cls-3,.cls-4{stroke:#000;stroke-miterlimit:10;}.cls-1,.cls-2{stroke-width:6px;}.cls-2{fill:none;}.cls-3{stroke-width:2px;}</style></defs><title>pin-icon</title><path class="cls-1" d="M251.12,68.34c-11-22.21-30.31-39.9-51.56-50.27-19.27-9.4-34.43-12.93-58.35-12.93C129,4.8,106,8.7,84.64,20.18a112.56,112.56,0,0,0-46.71,47c-32.49,63-4.53,106.68,6.3,127.53,29.09,43.16,77.1,110.07,100.37,140.13C169.82,300,244.5,194.25,244.5,194.25s18-29.07,20.85-63.52C267,111.14,262.11,88.55,251.12,68.34ZM144.18,205.84A82.82,82.82,0,1,1,227,123,82.82,82.82,0,0,1,144.18,205.84Z"/><circle class="cls-2" cx="144.18" cy="123.02" r="82.82"/><path class="cls-3" d="M145.37,185.26s4.16-9.93,3.52-27.22c.16-11.85,7.53-21.14,8.65-33.95.75-17.11-8-26.47-12.17-36.67a80.72,80.72,0,0,1-3.84-12.33c-1.92-13.29,1.28-21.46,1.28-21.46s-20.18,27.22-20.18,48,16,37.63,21.46,57c1.6,8.33-.32,16.17-1.6,21.78C139.93,188.79,145.37,185.26,145.37,185.26Z"/><path class="cls-3" d="M150.48,168.16s3.16-10.76,5.62-15.31,8.34-11.62,12.24-14.07,17.78-11.75,36.47-8.17c-6.59,2.63-8.26,4.62-10.85,8.19s-7.61,15.81-16,21.38-14.68,3.64-19.62,4.53C154.7,165.37,153.64,165.87,150.48,168.16Z"/><path class="cls-3" d="M142.87,169.12S136,130.23,95.38,135.61a22.77,22.77,0,0,1,10.39,7.52c3.12,4.86,7.33,14.28,11.92,17.22,6,3.85,13.86,5.21,19.07,5.86C140.23,166.64,141.2,167,142.87,169.12Z"/><path class="cls-4" d="M174.24,201.62c-1.3-1.9-.92-4.34-3.2-6.07s-10.26-4.5-8.3-3.29-5.21-7.61-8.3-7.61-7.33,5.88-10.91,6.06-4.56-7.27-9-7.09-8.3,8.13-11.88,10-4.4,0-8.14,2.25a5,5,0,0,0-2.75,3.55c-.12.39,13.79,5.2,28.81,5.83C157.54,206,174.93,202.63,174.24,201.62Z"/></svg>