<?xml version="1.0" encoding="utf-8"?>
<!-- Generator: Adobe Illustrator 21.1.0, SVG Export Plug-In . SVG Version: 6.00 Build 0)  -->
<svg version="1.1" id="Layer_4" xmlns="http://www.w3.org/2000/svg" xmlns:xlink="http://www.w3.org/1999/xlink" x="0px" y="0px"
	 viewBox="0 0 293.3 342" style="enable-background:new 0 0 293.3 342;" xml:space="preserve">
<style type="text/css">
	.st0{fill:#00D469;stroke:#000000;stroke-width:6;stroke-miterlimit:10;}
	.st1{fill:none;stroke:#000000;stroke-width:6;stroke-miterlimit:10;}
	.st2{fill:#00D469;stroke:#000000;stroke-width:2;stroke-miterlimit:10;}
	.st3{display:none;stroke:#000000;stroke-miterlimit:10;}
</style>
<title>pin-icon</title>
<path class="st0" d="M251.1,68.3c-11-22.2-30.3-39.9-51.6-50.3c-19.3-9.4-34.4-12.9-58.4-12.9C129,4.8,106,8.7,84.6,20.2
	c-19.9,10.6-36.2,27-46.7,47c-32.5,63-4.5,106.7,6.3,127.5c29.1,43.2,77.1,110.1,100.4,140.1c25.2-34.8,99.9-140.6,99.9-140.6
	s18-29.1,20.9-63.5C267,111.1,262.1,88.6,251.1,68.3z M144.2,205.8c-45.7,0-82.8-37.1-82.8-82.8c0-45.7,37.1-82.8,82.8-82.8
	c45.7,0,82.8,37.1,82.8,82.8C227,168.7,189.9,205.8,144.2,205.8C144.2,205.8,144.2,205.8,144.2,205.8z"/>
<circle class="st1" cx="144.2" cy="123" r="82.8"/>
<path class="st2" d="M145.4,191.3c0,0,4.2-9.9,3.5-27.2c0.2-11.9,7.5-21.1,8.6-33.9c0.8-17.1-8-26.5-12.2-36.7
	c-1.6-4-2.9-8.1-3.8-12.3c-1.9-13.3,1.3-21.5,1.3-21.5s-20.2,27.2-20.2,48s16,37.6,21.5,57c1.6,8.3-0.3,16.2-1.6,21.8
	C139.9,194.8,145.4,191.3,145.4,191.3z"/>
<path class="st2" d="M150.5,174.2c0,0,3.2-10.8,5.6-15.3s8.3-11.6,12.2-14.1s17.8-11.8,36.5-8.2c-6.6,2.6-8.3,4.6-10.9,8.2
	s-7.6,15.8-16,21.4s-14.7,3.6-19.6,4.5C154.7,171.4,153.6,171.9,150.5,174.2z"/>
<path class="st2" d="M142.9,175.1c0,0-6.9-38.9-47.5-33.5c4.1,1.5,7.7,4.1,10.4,7.5c3.1,4.9,7.3,14.3,11.9,17.2
	c6,3.9,13.9,5.2,19.1,5.9C140.2,172.6,141.2,173,142.9,175.1z"/>
<path class="st3" d="M174.2,201.6c-1.3-1.9-0.9-4.3-3.2-6.1s-10.3-4.5-8.3-3.3s-5.2-7.6-8.3-7.6s-7.3,5.9-10.9,6.1s-4.6-7.3-9-7.1
	s-8.3,8.1-11.9,10s-4.4,0-8.1,2.2c-1.4,0.7-2.4,2-2.8,3.6c-0.1,0.4,13.8,5.2,28.8,5.8C157.5,206,174.9,202.6,174.2,201.6z"/>
</svg>
