<?xml version="1.0" encoding="utf-8"?>
<!-- Generator: Adobe Illustrator 21.1.0, SVG Export Plug-In . SVG Version: 6.00 Build 0)  -->
<svg version="1.1" id="Layer_1" xmlns="http://www.w3.org/2000/svg" xmlns:xlink="http://www.w3.org/1999/xlink" x="0px" y="0px"
	 viewBox="0 0 168.3 263" style="enable-background:new 0 0 168.3 263;" xml:space="preserve">
<style type="text/css">
	.st0{fill:#00D469;stroke:#000000;stroke-width:3;stroke-miterlimit:10;}
	.st1{display:none;}
	.st2{fill:#00D469;stroke:#000000;stroke-width:2;stroke-miterlimit:10;}
</style>
<path class="st0" d="M84.6,4.6C42.8,4.6,8.9,38.5,8.9,80.3c0,63.3,75.5,175.8,75.7,175.8c0.3,0,75.7-113.5,75.7-175.8
	C160.3,38.5,126.4,4.6,84.6,4.6z M85,143.5c-35,0-63.4-28.4-63.4-63.4S50,16.8,85,16.8s63.4,28.4,63.4,63.4
	C148.3,115.2,120,143.5,85,143.5z"/>
<path class="st1" d="M109.1,46.4c2.5-1.9,2.5-5-1.6-6.1c-1.1-10.9-20.8,2.6-7.6,2.5l2.5,23.6c-0.3,5.9-5.6,5.9-8.4-0.5
	c-12.5-28.8-45.4-12-46.8,12.7c-0.8,12.7,10.4,13.2,12,5.9c3.4-15.4,14.6-13.5,9.5,1.7c-4.3,21.6,16.6,27.2,12.3,15.7
	c-4.2-11,9.6-12.3,12,6.5c0.8,5.6,1.6,9.6,1.6,14.1c0,3,3.4,3,3.4,0.3C97.8,89.3,149.5,92.5,109.1,46.4z"/>
<path class="st1" d="M133.4,76.9l-14-29.1c-0.3-0.7-0.9-1.3-1.6-1.6L86.2,30.7H86h-0.4h-0.3H85h-1h-0.3h-0.3h-0.2L52,46.2
	c-0.7,0.3-1.2,0.9-1.5,1.5L35.9,76.8c-0.9,1.7-0.2,3.8,1.5,4.6c0.5,0.2,1,0.4,1.6,0.4c0.4,0,0.8-0.1,1.2-0.3v30.7
	c0,3.4,2.7,6.2,6.2,6.3h76.2c3.5,0,6.3-2.9,6.3-6.3V81.5c0.4,0.2,0.9,0.3,1.4,0.3s1-0.1,1.5-0.3C133.5,80.7,134.2,78.6,133.4,76.9
	L133.4,76.9 M56.1,51.8l28.6-14.2l29,14.2l7.3,15H48.6L56.1,51.8z M80.8,97.7l-15.4,11.9V86.1L80.8,97.7z M84.6,100.6l14.7,11.1h-29
	L84.6,100.6z M88.3,97.7l15.4-11.9v23.6L88.3,97.7z M84.6,94.8L68.3,82.5h32.2L84.6,94.8z M108.3,111.7V82.1c0-2.3-1.9-4.2-4.2-4.2
	h-39c-1.4,0-2.8,0.7-3.6,1.9l0,0c-0.4,0.5-0.5,1.1-0.4,1.7c0,0,0,0.2,0,0.3v29.6H47.3v-40H122v40.2L108.3,111.7z"/>
<path class="st2" d="M119.2,50.1L84.6,36L50,50.1L37.8,81H45v30.6h25.2V82.8H99v28.8h25.2V81h7.2L119.2,50.1z M91.8,68.4H77.4V54
	h14.4V68.4z"/>
</svg>
