<?xml version="1.0" encoding="utf-8"?>
<!-- Generator: Adobe Illustrator 21.1.0, SVG Export Plug-In . SVG Version: 6.00 Build 0)  -->
<svg version="1.1" id="Layer_2" xmlns="http://www.w3.org/2000/svg" xmlns:xlink="http://www.w3.org/1999/xlink" x="0px" y="0px"
	 viewBox="0 0 293.3 342" style="enable-background:new 0 0 293.3 342;" xml:space="preserve">
<style type="text/css">
	.st0{fill:#00D469;stroke:#000000;stroke-width:6;stroke-miterlimit:10;}
	.st1{clip-path:url(#SVGID_2_);}
	.st2{fill:#00D469;stroke:#000000;stroke-width:7;stroke-miterlimit:10;}
	.st3{clip-path:url(#SVGID_4_);}
	.st4{fill:none;stroke:#000000;stroke-width:6;stroke-miterlimit:10;}
	.st5{fill:none;stroke:#000000;stroke-width:5;stroke-miterlimit:10;}
</style>
<title>recipes-icon</title>
<path class="st0" d="M9,288V90L92,7c0,0,99.7,1,117,1c11.2,0,21.8,3,22,19c1,15-2,263-2,263L9,288z"/>
<circle cx="32.7" cy="123.3" r="8.7"/>
<circle cx="32.7" cy="154.2" r="8.7"/>
<circle cx="32.7" cy="185" r="8.7"/>
<circle cx="32.7" cy="215.9" r="8.7"/>
<circle cx="32.7" cy="246.8" r="8.7"/>
<rect x="52" y="243.1" width="162" height="7.4"/>
<rect x="52" y="212" width="162" height="7.4"/>
<rect x="52" y="180.8" width="162" height="7.4"/>
<rect x="52" y="149.6" width="162" height="7.4"/>
<rect x="52" y="118.5" width="162" height="7.4"/>
<rect x="112.4" y="85.1" width="101.6" height="6.9"/>
<path class="st0" d="M77.9,254.8c-0.5,57.3,77.5,71,99.5,71.8s108.1-13.4,108.6-72.2"/>
<ellipse class="st0" cx="182" cy="256.4" rx="104.4" ry="20.7"/>
<g>
	<defs>
		<path id="SVGID_1_" d="M307.6,149.8c-0.1,0.9-241.5,93.7-241.3,94.5c4.4,20.4,77.1,28.6,98.3,29.8c20,1.1,92.8-0.1,107.5-17.4
			C273.6,254.9,307.5,151.9,307.6,149.8"/>
	</defs>
	<clipPath id="SVGID_2_">
		<use xlink:href="#SVGID_1_"  style="overflow:visible;"/>
	</clipPath>
	<g class="st1">
		<path class="st2" d="M159.5,306.4l110.1-131.8c2-2.4,5.5-2.7,7.9-0.7l1.7,1.4c2.4,2,2.7,5.5,0.7,7.9L169.8,315
			c-2,2.4-5.5,2.7-7.9,0.7l-1.7-1.4C157.9,312.3,157.6,308.7,159.5,306.4z"/>
	</g>
</g>
<g>
	<defs>
		<polygon id="SVGID_3_" points="3,100 94.1,9.3 121,11.9 119.7,114.4 6.2,122 		"/>
	</defs>
	<clipPath id="SVGID_4_">
		<use xlink:href="#SVGID_3_"  style="overflow:visible;"/>
	</clipPath>
	<g class="st3">
		<path class="st4" d="M0.3,0h78c6.6,0,12,5.4,12,12v64.4c0,6.6-5.4,12-12,12h-78c-6.6,0-12-5.4-12-12V12C-11.7,5.4-6.3,0,0.3,0z"/>
	</g>
</g>
<ellipse transform="matrix(0.866 -0.5 0.5 0.866 -138.651 89.8895)" class="st0" cx="98.4" cy="303.7" rx="37.8" ry="27.6"/>
<ellipse transform="matrix(0.998 -6.331308e-02 6.331308e-02 0.998 -19.1881 3.3509)" class="st0" cx="43.3" cy="304.4" rx="37.8" ry="27.6"/>
<rect x="114.1" y="25.8" class="st5" width="97.9" height="33.9"/>
</svg>
