<svg id="Layer_2" data-name="Layer 2" xmlns="http://www.w3.org/2000/svg" xmlns:xlink="http://www.w3.org/1999/xlink" viewBox="0 0 293.33 342"><defs><style>.cls-1,.cls-6,.cls-7{fill:none;}.cls-2,.cls-4{fill:#9cda57;}.cls-2,.cls-4,.cls-6,.cls-7{stroke:#000;stroke-miterlimit:10;}.cls-2,.cls-6{stroke-width:6px;}.cls-3{clip-path:url(#clip-path);}.cls-4{stroke-width:7px;}.cls-5{clip-path:url(#clip-path-2);}.cls-7{stroke-width:5px;}</style><clipPath id="clip-path"><path class="cls-1" d="M307.59,149.77c-.06.87-241.51,93.68-241.33,94.51,4.36,20.43,77.12,28.6,98.3,29.81,20,1.15,92.84-.15,107.5-17.42,1.52-1.8,35.39-104.75,35.53-106.9"/></clipPath><clipPath id="clip-path-2"><polygon class="cls-1" points="3 99.97 94.06 9.33 121 11.85 119.72 114.45 6.21 122 3 99.97"/></clipPath></defs><title>recipes-icon</title><path class="cls-2" d="M9,288V90L92,7s99.67,1,117,1c11.17,0,21.83,3,22,19,1,15-2,263-2,263Z"/><circle cx="32.67" cy="123.33" r="8.67"/><circle cx="32.67" cy="154.17" r="8.67"/><circle cx="32.67" cy="185.01" r="8.67"/><circle cx="32.67" cy="215.85" r="8.67"/><circle cx="32.67" cy="246.82" r="8.67"/><rect x="52" y="243.14" width="162" height="7.37"/><rect x="52" y="211.97" width="162" height="7.37"/><rect x="52" y="180.8" width="162" height="7.37"/><rect x="52" y="149.64" width="162" height="7.37"/><rect x="52" y="118.47" width="162" height="7.37"/><rect x="112.44" y="85.14" width="101.56" height="6.9"/><path class="cls-2" d="M77.88,254.82c-.48,57.3,77.48,71.05,99.49,71.82s108.1-13.37,108.57-72.2"/><ellipse class="cls-2" cx="181.96" cy="256.43" rx="104.37" ry="20.73"/><g class="cls-3"><rect class="cls-4" x="128.26" y="238.03" width="183" height="13.43" rx="5.61" ry="5.61" transform="translate(-108.96 256.48) rotate(-50.12)"/></g><g class="cls-5"><rect class="cls-6" x="-11.67" width="102" height="88.4" rx="12" ry="12"/></g><ellipse class="cls-2" cx="98.41" cy="303.67" rx="37.76" ry="27.63" transform="translate(-138.65 89.89) rotate(-30)"/><ellipse class="cls-2" cx="43.28" cy="304.44" rx="37.76" ry="27.63" transform="translate(-19.19 3.35) rotate(-3.63)"/><rect class="cls-7" x="114.08" y="25.78" width="97.92" height="33.89"/></svg>