<?xml version="1.0" encoding="utf-8"?>
<!-- Generator: Adobe Illustrator 21.1.0, SVG Export Plug-In . SVG Version: 6.00 Build 0)  -->
<svg version="1.1" id="Layer_3" xmlns="http://www.w3.org/2000/svg" xmlns:xlink="http://www.w3.org/1999/xlink" x="0px" y="0px"
	 viewBox="0 0 293.3 342" style="enable-background:new 0 0 293.3 342;" xml:space="preserve">
<style type="text/css">
	.st0{fill:#00D469;stroke:#000000;stroke-width:6;stroke-miterlimit:10;}
	.st1{fill:none;stroke:#000000;stroke-width:4;stroke-miterlimit:10;}
	.st2{fill:none;stroke:#000000;stroke-width:5;stroke-miterlimit:10;}
	.st3{fill:none;stroke:#000000;stroke-width:2;stroke-miterlimit:10;}
</style>
<title>snack-sack-icon</title>
<path class="st0" d="M20.5,288.2c0,0,132.3,39.2,177.8,47.8c31.3-4.7,66.6-27.4,79.1-39.1c-9.4-36-5.5-165.2,0-227.1
	C234.3,65.9,156,65.1,123.9,40C93.3,56.5,53.4,60.4,27.5,58.8C15,100.3,16.6,246,20.5,288.2z"/>
<path class="st1" d="M199.8,335.2c0,0-9.4-115.1,3.9-237.2c16.4-8.6,41.5-17.2,73.6-28.2"/>
<path class="st1" d="M203.7,98c0,0-130.7-18-176.2-39.2"/>
<path class="st2" d="M87.1,78.4c0,0,15.7-69.7,52.5-65s29.1,75.1,27.5,79"/>
<path class="st1" d="M155.2,54c0,0,13.4-53.4,44.8-49.8s24.7,59.5,23.4,62.5"/>
<path class="st3" d="M122.3,83.1c0,0,4.7-25.1,1.6-43.1"/>
<path d="M103.6,139.8l0.1-0.7c2.2,1.2,4.3,2.4,5.6,4.6c3,5,1,8.7-2.1,12l0.3,0.3c1.1-0.9,2-1.9,2.9-2.9c0.7-1.1,1.8-1.9,3.1-2
	c0.8-0.1,1.6-0.5,2.2-1.1c1.1-1.1,1.5-1,2,0.7c0.1,0.4,0.2,0.7,0.4,1v-1.2c0.8,0.3,0.9,0.9,1.1,1.5c0.1,0.5,0.3,1,0.7,1.4
	c0.9,0.8,1.3,2,1.1,3.2c-0.3,1.4-0.5,2.9-0.9,4.2c-0.5,1.8-1.5,2.1-3.1,1c-0.9-0.8-1.8-1.6-2.6-2.6c-0.1,0.5-0.2,0.9-0.2,1.4
	c0,0.6,0.2,1.3,0.3,1.9c0.2,1.1,0.5,1.8,1.8,2.1c1.1,0.3,1.7,1.3,1.5,2.4c0,0.2-0.1,0.3-0.2,0.5c-1.2-0.3-2-1.5-3.3-1.5
	c-1.1-0.2-2.2-0.5-3.2-1c0.2,0.9,0.6,2,0.8,3.1c0,0.1,0,0.3-0.1,0.4c-0.9,1.3-2.3,2.1-3.9,2.2c0.7-1.9,0.9-4.1,0.6-6.1
	c-0.1-0.4-0.2-0.8-0.4-1.2c-0.1,2.8-0.3,5.6-1.7,8c3.4,0.8,3.6,1,3.7,2.8l-1.2-1.1l-0.2,0.1l1,1l-0.3,0.3c-0.7,0-1.4,0-2.1-0.1
	c-2.2-0.5-4.4-1-6.6-1.7c-1.8-0.5-3-2.1-3-4c0-1.7,0.2-3.5,0.3-5.3c-1.1,1.8-1.5,3.9-1.2,6c-0.3-0.2-0.5-0.4-0.8-0.6
	c-2.7-2.3-4.1-5.8-3.7-9.3c0.2-3.7,1.7-7.3,4.2-10l-0.2-0.2l-2.8,2.2l-0.6-1.4l-1.4,2.3c-1.1-1.9-0.7-5.4,0.9-8.2
	C95,140.1,97.5,139.1,103.6,139.8z M119.4,157.5c0-0.7-0.1-1.4-0.3-2.1c-0.3-0.4-0.7-0.6-1.1-0.6c-0.2,0-0.5,0.6-0.5,0.9
	C117.5,156.8,118.2,157.2,119.4,157.5L119.4,157.5z"/>
<path d="M138,204.2c-1.9-0.6-2-2-2-3.7c-1.2,1.4-2.3,2.9-4.4,1.9c-0.9-0.4-1.1-1.3-1.1-3.6c-0.2,0.3-0.4,0.5-0.6,0.8
	c-0.6,0.7-1.4,1.3-2.2,1.8c-1,0.5-2.3,0.1-2.8-1c-0.2-0.3-0.2-0.7-0.2-1c0-1.5,0.1-3.1,0.4-4.6c0.2-1.2,0.6-2.3,0.8-3.5
	c0-0.6,0-1.1,0-1.7c0.9-0.6,2.2-0.3,2.8,0.6c0.2,0.4,0.4,0.8,0.3,1.3c0,1.2-0.3,2.3-0.6,3.4c-0.3,1.2-0.8,2.4-1,3.6
	c0,0.5,0.1,0.9,0.2,1.4c0.4-0.2,0.9-0.3,1.2-0.6c0.9-1,1.5-2.2,2.1-3.4c0.8-2.4,1.2-4.9,1.8-7.4c-0.6,0-1.1,0-1.6-0.1
	c-0.9-0.1-1.7-0.2-2.6-0.4c-0.8-0.2-1.6-0.8-1.6-1.7c0-0.9,0.4-1.7,0.9-2.3c0.3-0.3,1.3-0.2,1.9,0.1c0.7,0.5,1.1,1.3,0.9,2.2
	c-0.1,0.5-0.3,1-0.5,1.5c0.9-0.1,1.6-0.1,2.4-0.2c0.2-0.1,0.4-0.2,0.4-0.5c0.4-1.9,0.7-3.8,1.1-5.7c0-0.4,0-0.7-0.1-1.1
	c0.9-0.6,2-0.4,2.6,0.5c0.3,0.4,0.4,0.8,0.3,1.3c-0.1,1.2-0.2,2.4-0.5,3.6c-0.1,0.4-0.2,0.8-0.3,1.3c1.4-0.1,2.6-0.3,3.9-0.4
	c2.7-0.3,5.4,0.4,7.6,1.8c1.3,0.7,1.8,2.3,1.1,3.6c-0.1,0.2-0.2,0.3-0.3,0.5c-0.1,0.1-0.2,0.2-0.4,0.3c-1.5-2.6-3.9-3.5-6.4-3.9
	c-1.8-0.2-3.5-0.4-5.2-0.4c-0.4,0-0.7,0.2-0.8,0.6c-0.8,3.4-1.5,6.9-2.2,10.3c-0.1,0.6-0.1,1.3,0,1.9c2.2-0.4,4.7-6.5,4-9.3
	c0.9-0.6,2.2-0.3,2.8,0.6c0.2,0.4,0.3,0.8,0.3,1.2c-0.2,1.7-0.4,3.4-0.9,5.1c-0.2,0.9-0.4,1.7-0.6,2.6c0,0.4,0.1,0.7,0.2,1.1
	c0.3,0,0.6-0.1,0.9-0.3c1.3-1,2.2-2.5,2.5-4.1c0.3-1.5,0.4-3.1,0.6-4.8c0.9-0.6,2.6,0.4,2.7,1.6c0.1,0.6,0.1,1.3,0.1,1.9
	c-0.6,4.4-2,8.6-4.3,12.4c-0.5,0.9-1.2,1.6-2,2.3c-1,0.9-2.4,0.9-3.4,0.1c-1-0.7-1.4-2-1-3.2c0.4-1,0.9-2,1.6-2.9
	C137.1,205,137.6,204.6,138,204.2z M141.7,203.1l-0.4-0.3c-1.5,1.1-2.8,2.3-4.1,3.6c-0.6,0.8-1,1.8-1.1,2.8
	c-0.1,0.8,0.4,1.5,1.2,1.7c0.6,0,1.1-0.2,1.5-0.6c0.3-0.3,0.6-0.7,0.7-1.2C140.3,207.2,141,205.1,141.7,203.1L141.7,203.1z"/>
<path d="M71,181.1c1.3,0.8,2.2,2.1,2.3,3.7c0.3,2.3,0.3,4.7,0.5,7c0.1,1.4,0.4,2.8,0.6,4.2c-1.3-0.4-2.4-1.5-2.6-2.9
	c-0.4-1.6-0.7-3.2-0.9-4.9c-0.3-1.8-0.4-3.7-0.7-5.5c-0.1-1-0.9-1.9-1.9-1.9l-1.5,6.5c-0.9,0-1.6-0.7-1.6-1.5c0,0,0-0.1,0-0.1
	c0-0.4,0-0.8,0.1-1.2c0.5-4,1.1-7.9,1.6-11.9c0.1-0.5,0.1-1.1,0.1-1.7c1-0.4,2,0.1,2.4,1c0.1,0.2,0.1,0.3,0.1,0.5
	c0.2,1.3,0.2,2.7,0,4c-0.3,1.4-0.6,2.9-1.1,4.3c0.5-0.2,1-0.4,1.5-0.7c3.9-2.6,4.5-9.5,1.2-13.5c-1-1.1-1.3-1.3-2.4-0.6
	c-3,1.7-5.1,4.6-5.7,8c-0.1,0.6-0.1,1.2,0,1.8c-1.4-0.4-2.5-2.5-2.2-4.3c0.5-3.7,3.6-6.5,7.3-6.7c3.6-0.2,5.6,1,7.3,4.4
	c1.8,3.5,1.6,6.9-0.7,9.4C73.5,179.2,72.3,180.2,71,181.1z"/>
<path d="M94.5,189.7c-0.1,2.2,0.9,3.2,2.8,2.6c1-0.4,1.9-1,2.5-1.9c1.2-1.8,1.9-4,2.1-6.1c0-0.2-0.2-0.6-0.5-0.8
	c-0.7-0.6-1.4-1.3-2-2.1c-0.7-1-0.4-1.6,0.6-2c0.6-0.2,1.3-0.3,1.9-0.4c0,0.7-0.1,1.2,0,1.7c-0.1,1.3,0.7,2.4,2,2.7
	c0.5,0.1,1,0.3,1.5,0.6c1.2,0.5,1.9,1.7,1.7,3c-0.2,2.8-0.3,5.5-0.4,8.3c-0.1,1.2,0.4,2.4,1.5,3.1c-0.5,0.1-1,0.2-1.5,0.2
	c-1.5-0.3-2.8-1.5-3.1-3c-0.4-2-0.4-4,0-6c0.2-1.2,0.4-2.4,0.6-3.6c0.2-0.9-0.3-1.7-1.2-1.9c0,0-0.1,0-0.1,0
	c-0.1,0.4-0.1,0.8-0.2,1.2c-0.5,2.1-1.1,4.1-1.9,6.1c-1.2,2.4-3.8,3.2-6.4,2.3c-2-0.5-3.4-2.5-3.2-4.6c0.2-2.8,1.9-5.3,4.5-6.4
	c0.8-0.5,1.9-0.5,2.6,0.2c1.3,1.2,1.5,2,0.9,3.5c-0.3,0.7-0.6,1.3-1.1,1.9C97.4,189.4,95.9,190,94.5,189.7z M97.9,183.8
	c-1.8,1.3-2.9,3.2-3.2,5.3C96.4,187.8,97.5,185.9,97.9,183.8z"/>
<path d="M121.6,193.1c1.6,0.8,2.1,1.8,1.5,3.2c-1.1,2.9-5.2,4.5-8.1,3.2c-1.2-0.5-2.1-1.4-2.6-2.5c-0.6-1.2-1-2.5-1.3-3.8
	c-0.9-6.4,1-11.5,5.8-15.1c1.4-1,3.1-1.6,4.9-1.5c0.8,0.2,1.6,0.6,2.1,1.3c1.7,2,1.7,6.2,0,8c-0.5,0.5-1,0.9-1.6,0.4
	c0.2-1.5,0.4-2.9,0.6-4.4c0.2-1.3-0.1-2.6-0.7-3.7c-0.4-0.7-0.9-0.9-1.4-0.5c-0.7,0.4-1.3,0.9-1.8,1.5c-3.7,4.4-5.4,10.1-4.6,15.8
	c0.1,0.9,0.4,1.8,0.8,2.6c0.6,1.4,1.5,1.7,2.7,1.1c1.8-0.9,3.1-2.6,3.6-4.6C121.4,193.8,121.5,193.5,121.6,193.1z"/>
<path d="M77.9,178.1c1.1-0.5,2.4,0,2.9,1c0.2,0.3,0.2,0.7,0.2,1.1c0,1.1-0.2,2.1-0.5,3.1c-0.3,1.3-0.8,2.5-1.1,3.7
	c0,0.4,0.1,0.9,0.2,1.3c0.4-0.1,0.9-0.2,1.1-0.5c2-2.4,3.3-5.1,2.2-8.7c2.2-0.7,3.9,0.7,3.8,3.1s-0.6,4.6-0.9,6.8
	c-0.1,0.2-0.1,0.5,0,0.7c0.2-0.2,0.4-0.4,0.6-0.7c1.7-2.3,3-4.9,3.7-7.7c0.1-0.8,0.2-1.6,0.2-2.4c0.4,0.1,1.1,0,1.5,0.4
	c0.4,0.5,0.7,1.1,0.7,1.8c0,0.4-0.1,0.7-0.3,1.1c-1.4,3-3.4,5.8-5.8,8.2c-0.5,0.4-1,0.6-1.6,0.8c-0.4-0.6-0.7-1.2-1-1.9
	c-0.3-1.1-0.3-2.2-0.5-3.6c-0.2,0.5-0.5,0.9-0.8,1.4c-0.7,0.9-1.4,1.8-2.3,2.5c-1.7,1.1-3.5-0.1-3.5-2.3c0.1-1.8,0.4-3.6,0.7-5.4
	c0.1-0.8,0.3-1.6,0.4-2.4C77.8,179.3,77.9,178.7,77.9,178.1z"/>
<path d="M115.4,162.9c1.6-0.3,3.2,0.4,4.2,1.7c1-1,2.3-1.6,3.7-1.7l0.2,0.4l-3,0.7v0.3c1.4-0.1,2.7,0.5,3.5,1.7
	c-1,1.6-2.8,1.5-4.2-0.2l-0.2,0.2l1.9,2.2c-0.1,2.2-1.9,4-4.2,4.1c-1.1,0-2.2-0.6-2.8-1.5c-0.2-0.3-0.5-0.5-0.8-0.7
	c-1.3-0.7-1.9-2.2-1.5-3.7c1,0.1,2,0.3,3,0.5c0.6,0.2,1.2,0.6,1.7,0.9c0.9,0.5,1.4,0.2,1.5-0.7c0.2-1.5-0.7-2.7-2.4-3.2
	c-0.3-0.1-0.6-0.3-0.9-0.5L115.4,162.9z"/>
<path d="M112.6,207.6c-0.1,1.6-1.5,2.8-3.1,2.7c-0.2,0-0.4,0-0.5-0.1c-1.7-0.2-2.9-1.7-2.7-3.4s1.7-2.9,3.4-2.7
	c0.2,0,0.3,0.1,0.5,0.1C111.8,204.6,112.8,206,112.6,207.6z M111.5,208.3c-0.2-0.9-0.6-1.8-1-2.7c-0.7-1.1-2.1-1-2.3,0.2
	c-0.1,0.9-0.1,1.7,0.2,2.6c0.2,0.8,0.8,1.5,1.6,1.2C110.5,209.5,110.9,208.8,111.5,208.3z"/>
<path d="M82.9,197.9c1.7,0.4,2.7,2.1,2.3,3.7c-0.4,1.7-2.1,2.7-3.7,2.3c-1.6-0.3-2.6-1.8-2.3-3.4c0.1-1.7,1.6-2.9,3.2-2.7
	C82.6,197.8,82.7,197.8,82.9,197.9z M84.1,202c-0.2-0.9-0.5-1.8-0.9-2.7c-0.3-0.4-0.8-0.7-1.4-0.8c-0.5,0.1-0.9,0.4-1,0.9
	c-0.1,0.9,0,1.8,0.2,2.6c0.3,0.6,0.9,1,1.6,1.1C83.1,203.1,83.5,202.4,84.1,202L84.1,202z"/>
<path d="M99.7,207.9c1-0.9,1.6-4.6,0.9-5.8c1.4,0.3,2.7,0.6,4,1c0.7,0.2,1.2,0.9,1.2,1.6c0.1,0.9-0.5,1.8-1.4,2
	c-0.8,0.1-1.5,0.1-2.3,0.1c-0.4,0.7-0.1,1.5,0.5,1.8c0,0,0.1,0,0.1,0L99.7,207.9z M102.6,203c-0.1,0.7-0.2,1.3-0.2,2
	c0.1,0.4,0.2,0.7,0.3,1.1c0.5-0.2,1.1-0.2,1.3-0.5C104.6,204.7,104,203.5,102.6,203L102.6,203z"/>
<path d="M89.2,199.5c-0.8,0.6-1.3,3.4-0.9,4.4s1.8,1.3,2.1,0.5c0.4-1.2,0.7-2.5,0.8-3.8c0-0.1-0.3-0.4-0.5-0.7l1.8,0.4
	c-0.2,0.5-0.4,0.9-0.6,1.4c-0.2,0.8-0.3,1.6-0.5,2.4c-0.4,1.1-1.6,1.8-2.7,1.4c-0.1,0-0.1,0-0.2-0.1c-1.2-0.3-2-1.4-1.9-2.7
	c0-0.7,0.2-1.4,0.2-2.2c0-0.6,0-1.1-0.1-1.7L89.2,199.5z"/>
<path d="M118,207.8c-0.5-0.5-1-0.9-1.6-1.3c-0.3-0.1-0.8,0.2-1.1,0.3c0.2,0.3,0.4,0.6,0.6,0.9c0.4,0.4,1,0.6,1.4,1
	c1.2,1,1.1,2.7-0.3,2.9c-1,0.1-2,0-2.9-0.4c-0.9-0.3-0.6-1.1-0.3-1.9c0.2,0.3,0.4,0.6,0.7,0.9c0.5,0.4,1.1,0.7,1.6,0.9
	c0.2,0.1,0.6-0.2,0.7-0.4s-0.2-0.5-0.3-0.7c-0.4-0.4-0.9-0.7-1.4-1c-0.7-0.4-1.1-1.1-1-1.9c0.1-0.8,0.8-1.4,1.6-1.4
	c0.4,0,0.8,0,1.2,0.1C118.2,206.1,118.5,206.6,118,207.8z"/>
<path d="M94.2,206.6c0.8-0.8,1.3-2.9,1.3-5.4l-2,0.9c0.2-1.6,0.2-1.6,1.8-1.2c0.8,0.2,1.6,0.4,2.4,0.6c1.5,0.3,1.6,0.5,1,1.9
	l-1.3-1.6l-0.4,0.1c0.1,1.8-1.1,3.4-0.2,5.4L94.2,206.6z"/>
<path d="M120.1,212.7c0.8-0.8,1.4-3.1,1.3-5.4l-1.9,0.9c-0.1-1.4,0.2-1.6,1.6-1.2c0.8,0.2,1.6,0.4,2.4,0.6c1.7,0.4,1.7,0.4,1.1,2.1
	c-0.2-0.4-0.4-0.7-0.6-1.1c-0.3-0.3-0.7-0.6-1.1-0.8c0,2-1.2,3.6-0.2,5.6L120.1,212.7z"/>
<path d="M82.2,175.2c0,0.9-0.7,1.7-1.7,1.7c-0.2,0-0.4,0-0.5-0.1c-1-0.4-1.7-1.5-1.5-2.6c0.2-1.3,0.9-2,1.9-1.8
	c1.2,0.2,2,1.4,1.8,2.6C82.2,175.1,82.2,175.2,82.2,175.2z"/>
<path d="M89.7,163.4l0.5,0.8l0.5-0.5v0.6l1.3-0.2l0.4,1l-6.2,0.8l-0.1-0.2c0.7-0.3,1.4-0.5,2.2-0.7
	C89.3,164.8,89.8,164.4,89.7,163.4z"/>
<path d="M110.9,222.6c0.3-1.7,0.3-1.7,1-1.9l0.8,2.4l-0.7,0.1l-0.4-1.5h-0.2c0,0.4-0.1,0.7-0.2,1.1c-0.1,0.2-0.2,0.4-0.4,0.5
	c-0.2-0.2-0.4-0.3-0.5-0.6c-0.1-0.4-0.3-0.7-0.6-1l0.1,1.6h-0.3c0-0.8,0-1.5,0-2.2c0,0,0.7-0.1,0.8,0.1
	C110.5,221.6,110.8,222.1,110.9,222.6z"/>
<path d="M120.6,171.9l1.7-1.4l0.2,0.2l-0.6,0.7l4.4,3.2l-0.1,0.2L120.6,171.9z"/>
<path d="M95.5,221c-0.3-0.1-0.7-0.2-1-0.4c-0.2-0.1-0.6-0.3-0.6-0.5s0-0.8,0.2-0.9c0.7-0.3,1.4-0.5,2.1-0.7L95.5,221z"/>
<path d="M90.3,219.2c-0.4-0.7-0.8-1.2-0.8-1.4c0.2-0.4,0.6-0.6,1.1-0.6c0.4,0.2,0.7,0.6,0.8,1C91.3,218.5,90.8,218.8,90.3,219.2z"/>
<path d="M84.4,213.4c-0.7,0.3-1.1,0.7-1.4,0.6s-0.6-0.7-1-1.1c0.3-0.2,0.7-0.7,1-0.6S83.8,212.9,84.4,213.4z"/>
<path d="M108.6,216.8l0.3-2.3c0.3,0,0.6,0.1,0.9,0.2c0.2,0.1,0.6,0.5,0.6,0.7c0,0.3-0.2,0.6-0.5,0.8c-0.4,0.1-1,0-0.9,0.8
	L108.6,216.8z"/>
<path d="M89.7,210l0.5,2l1-1.6l0.3,0.1l0.1,2.4h-0.3L91,211l-1,1.6l-0.4-1.8l-0.2-0.1l-0.4,1.5l-0.2-0.1l0.6-2.1L89.7,210z"/>
<path d="M92.7,217.7c0.4,0.7,0.9,1.2,0.8,1.5c-0.2,0.4-0.5,0.7-0.9,0.7c-0.3,0-0.9-0.7-0.9-0.9S92.2,218.2,92.7,217.7z"/>
<path d="M116.9,219.7l0.5,1.4l0.7-1l0.2,0.1l-0.4,0.8l1.1,0.6v0.3l-1.2-0.2l-0.4,0.7l-0.3-0.1c0.2-0.9-0.8-1.7-0.4-2.6L116.9,219.7z
	"/>
<path d="M107.8,223l-0.3-0.9c1.2,0.2,0.2,0.9,0.7,1.4L106,223c0.1-0.5,0.3-1,0.5-1.4c0.1-0.2,0.6-0.2,0.9-0.2l0.1,0.3l-0.9,0.1
	L107.8,223z"/>
<path d="M100.4,221h-0.8l-0.1-0.3c0.4,0,1-0.2,1.1,0c0.3,0.6,0.6,1.3,0.7,2l-2-0.8v-0.4l1.1-0.3L100.4,221z"/>
<path d="M79.4,210.4l0.5,1.2c0.8-0.8-0.8-2,0.8-2.2c0.6,0,0.9,0.4,0.9,1.1l-0.8-0.9l-0.1,2c-0.3-0.1-0.7-0.2-1-0.3
	c-0.2-0.2-0.3-0.6-0.4-0.8L79.4,210.4z"/>
<path d="M104.8,222l-1.1,0.2v0.2l1,0.4c-0.4,0.4-1,0.4-1.3,0c0,0-0.1-0.1-0.1-0.1c-0.3-0.3-0.3-0.8,0-1.1c0.1-0.1,0.2-0.1,0.2-0.2
	C104,221.1,104.5,221.1,104.8,222z"/>
<path d="M115,222.7c-0.4,0.1-0.8,0.2-1.2,0.2c-0.2,0-0.5-0.1-0.7-0.2c0.1-0.2,0.2-0.4,0.3-0.6c0.2-0.1,0.3-0.3,0.5-0.4l-0.2-0.2
	l-0.8,0.3l-0.1-0.2c0.3-0.1,0.8-0.5,1-0.4C114.3,221.6,114.7,222.1,115,222.7z"/>
<path d="M112.4,217.6c-0.7-0.5-1.1-2.1-2.2-0.4c0.2-0.3,0.4-0.6,0.6-1s0.5-0.6,0.8-1.2L112.4,217.6z"/>
<path d="M120.7,220.9c-0.5,0.6-1,0.9-1.5,0.4c-0.2-0.4-0.3-0.9-0.1-1.3c0.1-0.2,0.7-0.2,1-0.2l-0.7,1.3L120.7,220.9z"/>
<path d="M103.1,220.6l-0.9,0.3l0.4,0.2l-0.4,1.7l-0.5-0.1C101.8,220.3,101.8,220.3,103.1,220.6z"/>
<path d="M87.4,217.2l1.1-2l0.7,0.4l-0.5,0.7l0.8,0.6l-0.1,0.1l-0.8-0.4l-0.4,0.9L87.4,217.2z"/>
<path d="M116.2,222.5l-0.8,0.1L115,221c0.3-0.1,0.7-0.2,1-0.3c0.1,0,0.2,0.1,0.3,0.2c0,0.1,0,0.2-0.1,0.3
	C115.7,221.8,115.7,221.8,116.2,222.5z"/>
<path d="M81.3,212.8l-0.5-0.4c0.5-0.6,0.9-1.2,1.4-1.7c0.1-0.1,0.3,0.1,0.6,0.2L81.3,212.8z"/>
<path d="M122,220.7c-0.2,0-0.7,0-0.8-0.1c-0.2-0.5-0.4-1-0.5-1.5c0.2-0.1,0.3-0.1,0.5-0.1L122,220.7z"/>
<path d="M98.9,221.7c-0.5,0.4-1.3,0.3-1.7-0.3c0-0.1-0.1-0.1-0.1-0.2c-0.3-0.5-0.2-1.1,0.3-1.5c0.1-0.1,0.2-0.1,0.3-0.1
	C97.4,221,97.5,221.3,98.9,221.7z"/>
<path d="M105.1,215.4l-0.3,0.6l-0.2-0.1l0.3-2.4l1,2.8L105.1,215.4z"/>
<path d="M85,215.2c0.1-0.3,0.3-0.6,0.5-0.9c0.1-0.1,0.5,0.1,0.5,0.1c0,0.5,0,1-0.1,1.6c0,0-0.3,0-0.5,0v-1.2L85,215.2L85,215.2z"/>
<path d="M85,215.1h-0.7c0-0.2-0.1-0.5-0.1-0.7c0.1-0.4,0.2-0.8,0.3-1.1l0.4,0.3L85,215.1L85,215.1z"/>
<path d="M93.1,213.2l-0.1-1.5h-0.8v-0.2c0.3,0,0.9-0.1,0.9,0c0.2,0.6,0.3,1.1,0.3,1.7L93.1,213.2z"/>
<path d="M118,155.2l1,1.6l-0.3,0.2C118,156.6,117.7,156.1,118,155.2z"/>
</svg>
