<svg id="Layer_3" data-name="Layer 3" xmlns="http://www.w3.org/2000/svg" viewBox="0 0 293.33 342"><defs><style>.cls-1{fill:#9cda57;stroke-width:6px;}.cls-1,.cls-2,.cls-3,.cls-4{stroke:#000;stroke-miterlimit:10;}.cls-2,.cls-3,.cls-4{fill:none;}.cls-2{stroke-width:4px;}.cls-3{stroke-width:5px;}.cls-4{stroke-width:2px;}</style></defs><title>snack-sack-icon</title><path class="cls-1" d="M20.5,288.24S152.83,327.39,198.25,336c31.32-4.7,66.56-27.41,79.08-39.15-9.4-36-5.48-165.22,0-227.08C234.27,65.86,156,65.08,123.86,40,93.32,56.46,53.39,60.38,27.55,58.81,15,100.31,16.59,246,20.5,288.24Z"/><path class="cls-2" d="M199.81,335.22s-9.4-115.1,3.92-237.25c16.44-8.61,41.5-17.23,73.6-28.19"/><path class="cls-2" d="M203.73,98S73,80,27.55,58.81"/><path class="cls-3" d="M87.06,78.39s15.66-69.69,52.46-65,29.06,75.07,27.49,79"/><path class="cls-2" d="M155.18,54S168.55.57,200,4.17s24.73,59.46,23.39,62.47"/><path class="cls-4" d="M122.3,83.08S127,58,123.86,40"/><path d="M103.59,139.81l.09-.67c2.19,1.16,4.31,2.44,5.64,4.65,3,5,1,8.71-2.14,12l.29.26a18,18,0,0,0,2.86-2.94,4.23,4.23,0,0,1,3.13-2,3.93,3.93,0,0,0,2.23-1.15c1.13-1.13,1.53-1,2,.68a3.35,3.35,0,0,0,.43,1v-1.25c.79.28.93.87,1.11,1.49a3.56,3.56,0,0,0,.66,1.36,3.57,3.57,0,0,1,1.08,3.24c-.3,1.42-.53,2.86-.91,4.24-.49,1.76-1.54,2.12-3.11,1a24.88,24.88,0,0,1-2.62-2.56,7.23,7.23,0,0,0-.16,1.38c0,.63.21,1.27.32,1.9.18,1.07.5,1.84,1.8,2.13a2,2,0,0,1,1.3,2.88c-1.15-.34-2-1.46-3.34-1.5A13.12,13.12,0,0,1,111,165c.25.94.55,2,.82,3.07a.5.5,0,0,1-.13.36,5.58,5.58,0,0,1-3.91,2.25,12,12,0,0,0,.61-6.11,4.2,4.2,0,0,0-.37-1.22c-.07,2.82-.3,5.56-1.67,8,3.38.83,3.62,1,3.72,2.8l-1.19-1.1-.15.15,1,1-.26.33a12,12,0,0,1-2.12-.12c-2.21-.51-4.42-1-6.6-1.69a4.06,4.06,0,0,1-3-4c0-1.74.19-3.47.31-5.29a8.88,8.88,0,0,0-1.17,6,8.59,8.59,0,0,1-.77-.56,10.87,10.87,0,0,1-3.7-9.33,16,16,0,0,1,4.24-10l-.2-.24-2.81,2.25-.56-1.36-1.41,2.27c-1.11-1.9-.73-5.35.92-8.25C95,140.1,97.46,139.11,103.59,139.81Zm15.81,17.66a9,9,0,0,0-.3-2.07,1.46,1.46,0,0,0-1.1-.59c-.19,0-.49.58-.48.92C117.52,156.75,118.22,157.19,119.39,157.47Z"/><path d="M138,204.2c-1.86-.57-2-2-2-3.66-1.25,1.37-2.31,2.91-4.45,1.88-.88-.42-1.12-1.31-1.13-3.63a5.62,5.62,0,0,1-.59.75,9.48,9.48,0,0,1-2.21,1.75,2.09,2.09,0,0,1-3-2,23.43,23.43,0,0,1,.44-4.55c.19-1.19.59-2.33.82-3.52a10.35,10.35,0,0,0,0-1.72,2,2,0,0,1,3.09,1.85,13.37,13.37,0,0,1-.6,3.44c-.3,1.23-.76,2.41-1,3.65a4,4,0,0,0,.23,1.37c.39-.19.93-.27,1.15-.6a13.53,13.53,0,0,0,2.06-3.42c.76-2.36,1.21-4.85,1.83-7.44-.63,0-1.1,0-1.56-.07a18.54,18.54,0,0,1-2.56-.38c-.82-.22-1.64-.81-1.6-1.69a3.87,3.87,0,0,1,.91-2.33c.3-.33,1.32-.22,1.87.06a2,2,0,0,1,.87,2.17,9.54,9.54,0,0,1-.51,1.53c.86-.06,1.65-.1,2.42-.2a.65.65,0,0,0,.42-.46q.57-2.84,1.07-5.71a4.35,4.35,0,0,0-.09-1.05,1.88,1.88,0,0,1,2.93,1.76,22.64,22.64,0,0,1-.5,3.6c-.06.4-.18.79-.29,1.27,1.38-.15,2.65-.33,3.93-.4a11.7,11.7,0,0,1,7.61,1.84,2.69,2.69,0,0,1,.81,4.13,2.13,2.13,0,0,1-.35.28c-1.51-2.58-3.86-3.5-6.41-3.87-1.75-.25-3.5-.35-5.25-.44a1,1,0,0,0-.82.57q-1.14,5.15-2.17,10.33a10.55,10.55,0,0,0,0,1.88c2.17-.42,4.66-6.46,4-9.26a2,2,0,0,1,3.06,1.86,31.76,31.76,0,0,1-.88,5.08c-.17.88-.44,1.74-.57,2.62a3.28,3.28,0,0,0,.23,1.07,2.84,2.84,0,0,0,.91-.29,7,7,0,0,0,2.5-4.15c.32-1.49.38-3.06.57-4.82.92-.62,2.59.41,2.72,1.61a7.86,7.86,0,0,1,.07,1.89,31.51,31.51,0,0,1-4.31,12.37,10.34,10.34,0,0,1-2,2.3,2.66,2.66,0,0,1-3.43.05,2.75,2.75,0,0,1-1-3.16,11.48,11.48,0,0,1,1.55-2.88A7.73,7.73,0,0,1,138,204.2Zm3.73-1.13-.4-.28a46.06,46.06,0,0,0-4.14,3.61,6,6,0,0,0-1.14,2.82,1.5,1.5,0,0,0,1.2,1.7,2.28,2.28,0,0,0,1.53-.57,2.59,2.59,0,0,0,.74-1.17C140.26,207.16,141,205.12,141.72,203.08Z"/><path d="M71,181.06a4.66,4.66,0,0,1,2.27,3.66c.28,2.33.33,4.67.54,7,.13,1.42.4,2.84.6,4.24a3.76,3.76,0,0,1-2.64-2.86,42,42,0,0,1-.89-4.85c-.27-1.84-.39-3.68-.69-5.52a2.07,2.07,0,0,0-1.95-1.93l-1.46,6.52a1.58,1.58,0,0,1-1.61-1.67,6.81,6.81,0,0,1,.09-1.25c.52-4,1.06-7.93,1.58-11.9.07-.53.06-1.09.09-1.67a1.87,1.87,0,0,1,2.57,1.5,12.73,12.73,0,0,1,0,4,37.48,37.48,0,0,1-1.09,4.27,10.8,10.8,0,0,0,1.49-.66c3.94-2.62,4.53-9.48,1.19-13.52-1-1.15-1.28-1.29-2.45-.64a11.5,11.5,0,0,0-5.68,8,7.88,7.88,0,0,0,0,1.75c-1.42-.41-2.51-2.48-2.25-4.33A7.79,7.79,0,0,1,68,164.46c3.58-.16,5.59,1,7.31,4.36,1.82,3.51,1.63,6.85-.74,9.36A31.31,31.31,0,0,1,71,181.06Z"/><path d="M94.51,189.67c-.07,2.2.94,3.2,2.8,2.59a5.55,5.55,0,0,0,2.54-1.9,13,13,0,0,0,2.06-6.15c0-.23-.24-.59-.46-.81a17.79,17.79,0,0,1-2-2.07c-.7-1-.45-1.61.64-2a17.17,17.17,0,0,1,1.89-.36c0,.72-.05,1.23,0,1.74a2.45,2.45,0,0,0,2,2.67,9.86,9.86,0,0,1,1.49.56,2.63,2.63,0,0,1,1.65,3c-.17,2.76-.32,5.52-.38,8.3a3.2,3.2,0,0,0,1.5,3.07,6.75,6.75,0,0,1-1.46.16,3.79,3.79,0,0,1-3.06-3,14.45,14.45,0,0,1,0-6c.17-1.2.42-2.39.58-3.59a1.58,1.58,0,0,0-1.33-1.91,11.58,11.58,0,0,1-.22,1.2,42.26,42.26,0,0,1-1.92,6.12c-1.16,2.43-3.76,3.17-6.45,2.29A4.28,4.28,0,0,1,91.21,189a7.55,7.55,0,0,1,4.54-6.43,2.18,2.18,0,0,1,2.62.17c1.31,1.22,1.52,2,.94,3.51a7.64,7.64,0,0,1-1.08,1.92A3.41,3.41,0,0,1,94.51,189.67Zm3.39-5.92a7.92,7.92,0,0,0-3.22,5.33A8.79,8.79,0,0,0,97.9,183.75Z"/><path d="M121.56,193.09c1.57.76,2.05,1.84,1.52,3.23-1.1,2.85-5.16,4.46-8.12,3.21a4.9,4.9,0,0,1-2.6-2.54,14.78,14.78,0,0,1-1.28-3.78c-.91-6.41,1-11.48,5.8-15.13a7.83,7.83,0,0,1,4.89-1.49,3.46,3.46,0,0,1,2.1,1.28c1.72,2,1.67,6.21,0,8-.48.51-1,.86-1.59.39.2-1.54.38-2.94.55-4.35a6.1,6.1,0,0,0-.7-3.74c-.39-.72-.86-.87-1.42-.48a9.27,9.27,0,0,0-1.83,1.49A20.65,20.65,0,0,0,114.24,195a7.91,7.91,0,0,0,.75,2.58c.64,1.35,1.5,1.66,2.73,1.08a6.91,6.91,0,0,0,3.61-4.57C121.41,193.77,121.47,193.46,121.56,193.09Z"/><path d="M77.87,178.14a2.16,2.16,0,0,1,3.07,2.15,11.42,11.42,0,0,1-.51,3.14c-.32,1.26-.8,2.47-1.11,3.73a3.64,3.64,0,0,0,.2,1.29c.37-.15.87-.18,1.1-.46,2-2.42,3.33-5.15,2.21-8.72,2.15-.67,3.9.71,3.75,3.09s-.56,4.55-.87,6.83a1.29,1.29,0,0,0,0,.72,8.64,8.64,0,0,0,.59-.67,23.46,23.46,0,0,0,3.73-7.69,13.87,13.87,0,0,0,.16-2.37c.39.08,1.13,0,1.52.36a3.39,3.39,0,0,1,.72,1.78,1.94,1.94,0,0,1-.34,1.06,29.11,29.11,0,0,1-5.8,8.2,6.1,6.1,0,0,1-1.61.83,8.7,8.7,0,0,1-1-1.87c-.26-1.11-.33-2.25-.5-3.57a8.58,8.58,0,0,1-.77,1.38,11.33,11.33,0,0,1-2.35,2.49c-1.7,1.05-3.53-.15-3.46-2.27a45.83,45.83,0,0,1,.74-5.35c.12-.79.33-1.55.43-2.35A14.27,14.27,0,0,0,77.87,178.14Z"/><path d="M115.4,162.92a4.44,4.44,0,0,1,4.23,1.7,5.6,5.6,0,0,1,3.7-1.66l.16.41-3,.67,0,.3A3.72,3.72,0,0,1,124,166c-1,1.6-2.81,1.51-4.21-.17l-.21.18,1.89,2.22a4.34,4.34,0,0,1-4.19,4.1,3.24,3.24,0,0,1-2.78-1.54,2.72,2.72,0,0,0-.77-.72,3.22,3.22,0,0,1-1.53-3.68,27.44,27.44,0,0,1,3,.48,8.46,8.46,0,0,1,1.73.94c.87.48,1.4.23,1.54-.74.22-1.47-.74-2.71-2.43-3.22a4.52,4.52,0,0,1-.9-.52Z"/><path d="M112.63,207.63a2.94,2.94,0,0,1-3.66,2.66,3.07,3.07,0,1,1,1.2-6A3,3,0,0,1,112.63,207.63Zm-1.17.69a14.13,14.13,0,0,0-1-2.69c-.71-1.13-2.07-1-2.34.19a5.68,5.68,0,0,0,.18,2.56c.2.75.85,1.46,1.63,1.24C110.51,209.46,110.91,208.81,111.46,208.32Z"/><path d="M82.92,197.85a3.07,3.07,0,1,1-1.46,6,2.94,2.94,0,0,1-2.33-3.37A3,3,0,0,1,82.92,197.85Zm1.14,4.1a15.25,15.25,0,0,0-.92-2.69,1.87,1.87,0,0,0-1.38-.76,1.27,1.27,0,0,0-1,.89A5.8,5.8,0,0,0,81,202a2.2,2.2,0,0,0,1.58,1.1C83.09,203.14,83.51,202.42,84.05,201.94Z"/><path d="M99.69,207.9c1-.85,1.56-4.61.87-5.81,1.41.33,2.72.59,4,1a1.65,1.65,0,0,1,1.19,1.64,1.79,1.79,0,0,1-1.39,2,12,12,0,0,1-2.28.05,1.35,1.35,0,0,0,.61,1.88Zm2.9-4.86a18.92,18.92,0,0,0-.24,2,3.9,3.9,0,0,0,.32,1.08c.46-.16,1.11-.18,1.33-.52C104.6,204.71,104,203.51,102.59,203Z"/><path d="M89.23,199.48c-.79.62-1.34,3.4-.92,4.36s1.75,1.31,2.08.49a18.09,18.09,0,0,0,.78-3.8c0-.15-.27-.38-.5-.69l1.78.42a10.9,10.9,0,0,0-.58,1.41c-.21.79-.26,1.65-.52,2.42a2.16,2.16,0,0,1-2.86,1.36,2.41,2.41,0,0,1-1.86-2.68c0-.73.2-1.44.24-2.18a15.4,15.4,0,0,0-.1-1.7Z"/><path d="M118,207.83a9.42,9.42,0,0,0-1.6-1.32c-.28-.15-.75.16-1.14.27a4,4,0,0,0,.59.93c.43.38,1,.63,1.41,1,1.2,1,1.09,2.67-.29,2.94a5.61,5.61,0,0,1-2.88-.37c-.9-.34-.6-1.14-.3-1.91a4.17,4.17,0,0,0,.68.87,7.68,7.68,0,0,0,1.63.92c.18.07.56-.19.69-.41s-.15-.54-.34-.7c-.44-.38-.94-.67-1.41-1a1.93,1.93,0,0,1-1-1.89,1.59,1.59,0,0,1,1.61-1.38,4.14,4.14,0,0,1,1.22.08C118.24,206.13,118.49,206.63,118,207.83Z"/><path d="M94.2,206.62c.78-.8,1.32-2.92,1.31-5.44l-2,.89c.15-1.59.2-1.62,1.8-1.22q1.22.31,2.45.57c1.53.33,1.62.51,1,1.92l-1.31-1.6-.37.13c.05,1.79-1.12,3.4-.19,5.39Z"/><path d="M120.14,212.71c.78-.79,1.36-3.11,1.26-5.43l-1.88.88c-.06-1.37.22-1.61,1.6-1.25.82.21,1.63.4,2.45.58,1.68.37,1.68.37,1.14,2.14a6.51,6.51,0,0,0-.58-1.07,7.19,7.19,0,0,0-1.07-.84c0,2-1.17,3.62-.19,5.64Z"/><path d="M82.2,175.2A1.7,1.7,0,0,1,80,176.87a2.39,2.39,0,0,1-1.48-2.59c.16-1.33.92-2,1.93-1.77A2.2,2.2,0,0,1,82.2,175.2Z"/><path d="M89.71,163.37l.5.84.49-.5,0,.64,1.27-.23.41,1-6.15.76-.06-.16a20,20,0,0,1,2.18-.7C89.28,164.84,89.83,164.45,89.71,163.37Z"/><path d="M110.93,222.65c.33-1.7.33-1.7,1-1.93l.8,2.38-.73.07-.37-1.5h-.16a8.82,8.82,0,0,1-.2,1.06,2.1,2.1,0,0,1-.36.53,3.18,3.18,0,0,1-.54-.55,4.22,4.22,0,0,0-.59-1l.06,1.61-.32,0c0-.75,0-1.49,0-2.23,0,0,.66-.06.76.08A8.21,8.21,0,0,1,110.93,222.65Z"/><path d="M120.61,171.88l1.7-1.36.17.19-.61.68,4.38,3.19-.1.17Z"/><path d="M95.47,221a8.43,8.43,0,0,1-1-.35c-.23-.11-.58-.32-.61-.5s0-.83.2-.92a15.54,15.54,0,0,1,2.13-.67Z"/><path d="M90.27,219.25c-.37-.68-.85-1.23-.75-1.43a1.31,1.31,0,0,1,1.09-.64,1.39,1.39,0,0,1,.76,1C91.29,218.54,90.79,218.78,90.27,219.25Z"/><path d="M84.42,213.44c-.69.3-1.13.69-1.44.57s-.64-.7-1-1.09c.35-.24.72-.7,1-.65S83.8,212.88,84.42,213.44Z"/><path d="M108.57,216.82l.29-2.27a3,3,0,0,1,.95.17c.24.13.57.47.56.68a.92.92,0,0,1-.48.75c-.45.13-1,0-.91.76Z"/><path d="M89.71,210l.46,2,1-1.59.26.07.07,2.36-.31,0L91,211l-1,1.59-.43-1.8-.21-.06L89,212.19l-.21-.09.61-2.12Z"/><path d="M92.67,217.66c.4.71.86,1.18.79,1.46a1.12,1.12,0,0,1-.94.72c-.31,0-.88-.67-.86-.94S92.17,218.23,92.67,217.66Z"/><path d="M116.9,219.68l.47,1.41.65-1,.21.14-.4.76,1.05.56v.29l-1.19-.2-.39.73-.29-.13c.18-.85-.8-1.72-.41-2.57Z"/><path d="M107.76,223l-.31-.93c1.18.19.2.93.66,1.4l-2.08-.49a6.59,6.59,0,0,1,.53-1.43c.13-.2.57-.17.87-.24l.08.31-.95.1Z"/><path d="M100.36,221l-.84,0-.06-.26c.36,0,1-.18,1.05,0a11.93,11.93,0,0,1,.74,2l-2-.77,0-.35,1.11-.31Z"/><path d="M79.44,210.43l.47,1.2c.8-.82-.76-2,.79-2.16.56,0,.95.41.86,1.12l-.75-.92-.12,2a3.2,3.2,0,0,1-1-.32c-.22-.16-.29-.55-.43-.83Z"/><path d="M104.79,222l-1.14.25,0,.2,1,.37a.93.93,0,0,1-1.41-.11.81.81,0,0,1,.22-1.32C104,221.08,104.48,221.15,104.79,222Z"/><path d="M115,222.69a7.54,7.54,0,0,1-1.16.22,2.7,2.7,0,0,1-.72-.19,3.22,3.22,0,0,1,.32-.61,2.56,2.56,0,0,1,.5-.38l-.17-.25-.76.3-.14-.24c.33-.14.85-.5,1-.39A10.15,10.15,0,0,1,115,222.69Z"/><path d="M112.45,217.63c-.68-.47-1.13-2.06-2.15-.45.2-.32.4-.65.61-1s.47-.65.84-1.17Z"/><path d="M120.73,220.89c-.47.6-1,.88-1.46.35a1.49,1.49,0,0,1-.1-1.28c.09-.21.68-.16,1-.22l-.66,1.26Z"/><path d="M103.14,220.55l-.94.3.37.23-.41,1.66-.51-.08C101.83,220.32,101.84,220.31,103.14,220.55Z"/><path d="M87.36,217.19l1.07-2,.65.35-.54.71.77.65-.08.13-.84-.43-.38.91Z"/><path d="M116.22,222.49l-.76.15L115,221c.32-.11.65-.23,1-.31a.37.37,0,0,1,.29.18.39.39,0,0,1-.06.34C115.74,221.76,115.74,221.76,116.22,222.49Z"/><path d="M81.34,212.81l-.47-.4c.48-.6.94-1.18,1.44-1.72.05-.06.35.12.61.22Z"/><path d="M122,220.72c-.17,0-.65,0-.75-.13a5.19,5.19,0,0,1-.51-1.48,2.67,2.67,0,0,1,.47-.13Z"/><path d="M98.92,221.68a1.19,1.19,0,0,1-1.77-.43,1.06,1.06,0,0,1,.58-1.61C97.36,221,97.54,221.32,98.92,221.68Z"/><path d="M105.07,215.35l-.29.62-.16-.09.3-2.37,1,2.75Z"/><path d="M85,215.16a5.38,5.38,0,0,1,.51-.87c.06-.07.51.09.51.12a11.74,11.74,0,0,1-.09,1.55s-.34,0-.52,0l0-1.22-.36.38Z"/><path d="M85,215.13l-.73,0a2.84,2.84,0,0,1-.06-.68,11.75,11.75,0,0,1,.29-1.14l.42.27.07,1.54Z"/><path d="M93.11,213.23,93,211.7h-.78l0-.21c.32,0,.9-.06.93,0a13.06,13.06,0,0,1,.34,1.72Z"/><path d="M118,155.17l1,1.59-.28.16C118,156.62,117.71,156.11,118,155.17Z"/></svg>